<svg xmlns="http://www.w3.org/2000/svg"  viewBox="0 0 48 48" width="100px" height="100px"><path fill="#9fa8da" d="M28.958,7c-8.373,0-15.132,4.556-15.132,15.34s6.759,25.567,15.132,25.567S44.09,33.124,44.09,22.34	S37.331,7,28.958,7z"/><path fill="none" stroke="#18193f" stroke-linecap="round" stroke-linejoin="round" stroke-miterlimit="10" stroke-width="3" d="M32.775,5.632c-2.502-1.459-5.539-2.14-8.817-2.14c-8.581,0-15.508,4.669-15.508,15.721c0,0.625,0.022,1.263,0.065,1.91"/><path fill="none" stroke="#18193f" stroke-linecap="round" stroke-linejoin="round" stroke-miterlimit="10" stroke-width="3" d="M9.898,28.81c2.467,8.611,7.827,16.605,14.06,16.605c8.581,0,15.508-15.15,15.508-26.202c0-3.058-0.53-5.628-1.479-7.745"/><path fill="none" stroke="#18193f" stroke-miterlimit="10" stroke-width="3" d="M31.291,13.626c1.337,3.514-0.743,7.422-2.74,8.836	c-1.508,1.068-1.929,3.066-0.786,4.518c0.012,0.016,0.024,0.031,0.037,0.046c1.522,1.897,4.54,1.603,5.669-0.556	c2.191-4.191,1.121-10.792-1.319-13.387C31.774,12.683,31.096,13.112,31.291,13.626z"/><path fill="none" stroke="#18193f" stroke-miterlimit="10" stroke-width="3" d="M16.852,13.627	c-1.336,3.513,0.744,7.421,2.741,8.835c1.508,1.068,1.929,3.066,0.786,4.518c-0.012,0.016-0.024,0.031-0.037,0.046	c-1.522,1.897-4.54,1.603-5.669-0.556c-2.192-4.191-1.122-10.792,1.318-13.387C16.368,12.682,17.047,13.112,16.852,13.627z"/><path fill="#18193f" d="M28.554,42.1l-1.201-0.864c-0.439-0.316-1.031-0.315-1.469,0.001L24.685,42.1	c-0.439,0.316-1.031,0.316-1.47,0l-1.195-0.861c-0.439-0.316-1.031-0.316-1.47,0L19.355,42.1c-0.137,0.099-0.291,0.156-0.449,0.193	c1.718,1.262,3.519,2.024,5.052,2.027c1.533-0.004,3.333-0.765,5.051-2.026C28.849,42.257,28.693,42.201,28.554,42.1z"/><path fill="#18193f" d="M34.955,32.812c-2.368,1.028-6.231,2.1-10.888,2.102c-4.658-0.002-8.52-1.074-10.888-2.102	c-0.71-0.308-1.174,0.464-0.905,1.238c0.459,1.327,1.11,2.598,1.889,3.772c0.335,0.506,1.089,0.465,1.391-0.062	c0.216-0.376,0.529-0.682,0.975-0.682c1.192,0,1.81,1.092,2.574,1.092c0.92,0,1.173-1.086,2.051-1.086	c1.211,0,1.784,2.166,2.913,2.172c1.129-0.005,1.702-2.172,2.913-2.172c0.878,0,1.131,1.086,2.051,1.086	c0.764,0,1.383-1.092,2.574-1.092c0.446,0,0.759,0.306,0.975,0.682c0.303,0.527,1.055,0.568,1.391,0.062	c0.78-1.174,1.43-2.445,1.889-3.772C36.128,33.276,35.664,32.504,34.955,32.812z"/></svg>